<svg xmlns="http://www.w3.org/2000/svg" viewBox="0 0 96 96" role="img" aria-label="GitHub">
  <rect width="96" height="96" rx="20" fill="#111827"/>
  <path fill="#fff" d="M48 18c-16.8 0-30.4 13.6-30.4 30.4 0 13.4 8.7 24.8 20.8 28.8 1.5.3 2.1-.7 2.1-1.5v-5.5c-8.5 1.8-10.3-3.6-10.3-3.6-1.4-3.5-3.4-4.5-3.4-4.5-2.8-1.9.2-1.9.2-1.9 3.1.2 4.7 3.2 4.7 3.2 2.7 4.7 7.2 3.3 8.9 2.5.3-2 .1-3.3.1-3.3-6.8-.8-13.9-3.4-13.9-15.1 0-3.3 1.2-6.1 3.2-8.2-.3-.8-1.4-4 .3-8.1 0 0 2.6-.8 8.4 3.1a28.5 28.5 0 0 1 15.3 0c5.8-3.9 8.4-3.1 8.4-3.1 1.7 4.1.6 7.3.3 8.1 2 2.1 3.2 4.9 3.2 8.2 0 11.8-7.1 14.3-13.9 15.1.8.7 1.2 2 1.2 4.1v8.9c0 .8.6 1.8 2.1 1.5a30.4 30.4 0 0 0-9.3-59.1Z"/>
</svg>
